<svg width="53" height="53" viewBox="0 0 53 53" fill="none" xmlns="http://www.w3.org/2000/svg">
<circle cx="26.5" cy="26.5" r="26.5" fill="#F3F3F3"/>
<path d="M18.3077 21.6154C17.9609 21.6154 17.6283 21.7532 17.383 21.9984C17.1378 22.2436 17 22.5763 17 22.9231V34.6923C17 35.0391 17.1378 35.3717 17.383 35.617C17.6283 35.8622 17.9609 36 18.3077 36H32.6923C33.0391 36 33.3717 35.8622 33.617 35.617C33.8622 35.3717 34 35.0391 34 34.6923V22.9231C34 22.5763 33.8622 22.2436 33.617 21.9984C33.3717 21.7532 33.0391 21.6154 32.6923 21.6154H30.0769M20.9231 19V24.2308M30.0769 19V24.2308M20.9231 21.6154H27.4615M21.5769 28.1538C21.5769 28.515 21.2842 28.8077 20.9231 28.8077C20.562 28.8077 20.2692 28.515 20.2692 28.1538C20.2692 27.7927 20.562 27.5 20.9231 27.5C21.2842 27.5 21.5769 27.7927 21.5769 28.1538ZM26.1538 28.1538C26.1538 28.515 25.8611 28.8077 25.5 28.8077C25.1389 28.8077 24.8462 28.515 24.8462 28.1538C24.8462 27.7927 25.1389 27.5 25.5 27.5C25.8611 27.5 26.1538 27.7927 26.1538 28.1538ZM30.7308 28.1538C30.7308 28.515 30.438 28.8077 30.0769 28.8077C29.7158 28.8077 29.4231 28.515 29.4231 28.1538C29.4231 27.7927 29.7158 27.5 30.0769 27.5C30.438 27.5 30.7308 27.7927 30.7308 28.1538ZM21.5769 32.0769C21.5769 32.438 21.2842 32.7308 20.9231 32.7308C20.562 32.7308 20.2692 32.438 20.2692 32.0769C20.2692 31.7158 20.562 31.4231 20.9231 31.4231C21.2842 31.4231 21.5769 31.7158 21.5769 32.0769Z" stroke="#161617" stroke-linecap="round" stroke-linejoin="round"/>
</svg>
