<svg width="70" height="75" viewBox="0 0 70 75" fill="none" xmlns="http://www.w3.org/2000/svg">
<path d="M22.9514 57.8531C22.9514 44.1744 22.9514 30.556 22.9514 16.8974C32.5869 16.8974 42.1821 16.8974 51.8377 16.8974C51.8377 18.5871 51.8377 20.317 51.8377 22.0671C51.0934 22.2884 50.3491 22.5298 49.5043 22.7913C49.5043 21.6044 49.5043 20.4981 49.5043 19.3314C41.4378 19.3314 33.4317 19.3314 25.3854 19.3314C25.3854 24.9236 25.3854 30.4956 25.3854 36.1683C29.831 36.1683 34.2766 36.1683 38.8027 36.1683C38.2394 40.6139 39.1446 44.6169 41.6591 48.2176C44.1535 51.8184 47.5933 54.0713 51.8779 55.1173C51.8779 56.0226 51.8779 56.9278 51.8779 57.8732C42.2425 57.8531 32.6271 57.8531 22.9514 57.8531ZM25.3653 40.9558C29.0063 40.9558 32.5668 40.9558 36.1273 40.9558C36.1273 40.1512 36.1273 39.3868 36.1273 38.6224C32.5064 38.6224 28.9459 38.6224 25.3653 38.6224C25.3653 39.4069 25.3653 40.1512 25.3653 40.9558ZM25.3854 43.4502C25.3854 44.2548 25.3854 45.0192 25.3854 45.7836C29.0063 45.7836 32.5869 45.7836 36.1474 45.7836C36.1474 44.979 36.1474 44.2146 36.1474 43.4502C32.5265 43.4502 28.966 43.4502 25.3854 43.4502ZM36.1675 48.2981C32.5265 48.2981 28.9459 48.2981 25.4055 48.2981C25.4055 49.1228 25.4055 49.8671 25.4055 50.6315C29.0264 50.6315 32.5869 50.6315 36.1675 50.6315C36.1675 49.847 36.1675 49.1027 36.1675 48.2981ZM25.3854 53.1058C25.3854 53.9104 25.3854 54.6748 25.3854 55.4392C29.0063 55.4392 32.5869 55.4392 36.1474 55.4392C36.1474 54.6346 36.1474 53.8702 36.1474 53.1058C32.5265 53.1058 28.966 53.1058 25.3854 53.1058Z" fill="#251C1C"/>
<path d="M20.5587 60.2872C31.8236 60.2872 43.0281 60.2872 54.2929 60.2872C54.2929 58.6779 54.2929 57.1089 54.2929 55.4996C55.1176 55.4996 55.8619 55.4996 56.6666 55.4996C56.6666 57.8532 56.6666 60.2269 56.6666 62.6609C43.8729 62.6609 31.0391 62.6609 18.1448 62.6609C18.1448 45.824 18.1448 28.9669 18.1448 12.0697C30.9787 12.0697 43.8126 12.0697 56.6867 12.0697C56.6867 15.2681 56.6867 18.4464 56.6867 21.6649C55.9223 21.6649 55.178 21.6649 54.3532 21.6649C54.3532 19.3113 54.3532 16.9377 54.3532 14.5037C43.0482 14.5037 31.8236 14.5037 20.5587 14.5037C20.5587 29.7313 20.5587 44.9791 20.5587 60.2872Z" fill="#251C1C"/>
<path d="M68.3946 45.0391C67.4089 42.5447 65.3973 41.4786 62.9633 40.9958C61.696 40.7343 60.4287 40.3722 59.0206 40.0302C59.2419 39.7888 59.3827 39.5877 59.5436 39.4469C60.831 38.2399 61.5351 36.7514 61.5351 34.9611C61.5351 33.8145 61.5954 32.6276 61.4144 31.5011C60.9316 28.5844 58.4574 26.5325 55.5607 26.5124C52.7445 26.4923 50.1294 28.5441 49.6869 31.3804C49.4455 32.869 49.5059 34.438 49.6265 35.9467C49.7271 37.3548 50.4915 38.5014 51.5375 39.4268C51.6784 39.5475 51.8996 39.6078 52.0807 39.6883C52.0203 39.7888 51.9801 39.8894 51.9197 39.99C51.6985 40.0705 51.4772 40.1509 51.2559 40.1912C49.9685 40.513 48.6811 40.855 47.3736 41.1366C45.1608 41.6194 43.5516 42.8464 42.6464 44.9586C40.0917 40.5935 40.2325 33.0098 45.6637 27.9406C50.9542 23.0123 59.1413 22.7508 64.7737 27.4176C70.547 32.2655 71.1907 39.9699 68.3946 45.0391Z" fill="#251C1C"/>
<path d="M59.2606 33.794C59.1399 34.6389 59.16 35.5441 58.8382 36.2883C58.5163 36.9924 57.8525 37.5959 57.249 38.1189C56.9071 38.4206 56.7059 38.6419 56.726 39.0844C56.7663 39.8287 56.7663 40.5931 56.726 41.3374C56.7059 41.78 56.8266 41.9811 57.3094 42.1018C59.321 42.5645 61.3124 43.0875 63.3039 43.5904C65.4563 44.1335 66.5023 45.5416 66.3816 47.7543C66.3615 47.9957 66.2408 48.2774 66.0799 48.4785C60.5681 54.5736 50.5103 54.5937 44.9985 48.4785C44.7773 48.217 44.6767 47.7745 44.6767 47.3923C44.6566 45.4209 45.7227 44.0732 47.6538 43.5904C49.6252 43.1076 51.5965 42.6047 53.5679 42.142C54.1311 42.0213 54.4127 41.8001 54.3121 41.1966C54.2719 40.9552 54.292 40.6937 54.3121 40.4523C54.3926 39.2856 54.3926 38.2396 53.1052 37.5556C52.5822 37.274 52.1396 36.4493 52.0592 35.8257C51.9184 34.4779 51.858 33.0497 52.0793 31.7221C52.4011 29.8915 54.1713 28.7449 55.9214 28.9662C57.7318 29.1875 59.0796 30.6962 59.1198 32.587C59.1198 32.9894 59.1198 33.3917 59.1198 33.794C59.1802 33.794 59.2204 33.794 59.2606 33.794Z" fill="#251C1C"/>
<path d="M56.7265 9.57564C43.8323 9.57564 30.9984 9.57564 18.1243 9.57564C18.1243 8.18765 18.0237 6.8399 18.1444 5.49214C18.3255 3.62137 19.9146 2.37419 21.9463 2.37419C31.0185 2.37419 40.0908 2.37419 49.163 2.37419C50.4504 2.37419 51.7177 2.37419 53.0051 2.37419C55.1575 2.39431 56.6863 3.92311 56.7265 6.09561C56.7466 7.24221 56.7265 8.38881 56.7265 9.57564ZM39.789 4.84843C36.5504 4.84843 33.3721 4.84843 30.234 4.84843C30.234 5.67318 30.234 6.41746 30.234 7.18186C33.4525 7.18186 36.6107 7.18186 39.789 7.18186C39.789 6.37723 39.789 5.63295 39.789 4.84843ZM42.3035 4.8082C42.3035 5.65306 42.3035 6.41746 42.3035 7.16175C43.1081 7.16175 43.8524 7.16175 44.6168 7.16175C44.6168 6.35712 44.6168 5.59272 44.6168 4.8082C43.8122 4.8082 43.0679 4.8082 42.3035 4.8082Z" fill="#251C1C"/>
<path d="M18.0838 65.1754C30.9981 65.1754 43.8119 65.1754 56.6659 65.1754C56.6659 66.6036 56.7865 68.0117 56.6256 69.3997C56.4245 71.1699 54.8755 72.3969 53.0852 72.3969C42.625 72.4171 32.1648 72.4171 21.6845 72.3969C19.6528 72.3969 18.1039 70.8279 18.0637 68.8163C18.0637 67.6295 18.0838 66.4427 18.0838 65.1754ZM32.6074 69.9227C35.846 69.9227 39.0042 69.9227 42.1624 69.9227C42.1624 69.0979 42.1624 68.3537 42.1624 67.5893C38.9438 67.5893 35.7857 67.5893 32.6074 67.5893C32.6074 68.3939 32.6074 69.1382 32.6074 69.9227ZM22.9518 69.9428C23.7765 69.9428 24.5208 69.9428 25.2852 69.9428C25.2852 69.1382 25.2852 68.3939 25.2852 67.6094C24.4806 67.6094 23.7162 67.6094 22.9518 67.6094C22.9518 68.414 22.9518 69.1583 22.9518 69.9428ZM51.8783 67.6094C51.0535 67.6094 50.2892 67.6094 49.5248 67.6094C49.5248 68.414 49.5248 69.1784 49.5248 69.9227C50.3495 69.9227 51.0938 69.9227 51.8783 69.9227C51.8783 69.1382 51.8783 68.414 51.8783 67.6094Z" fill="#251C1C"/>
<path d="M27.8002 21.7253C34.2372 21.7253 40.6139 21.7253 47.0711 21.7253C47.0711 22.4092 47.0912 23.0529 47.051 23.6966C47.051 23.8575 46.8901 24.0587 46.7492 24.1593C42.3439 27.418 41.318 28.7054 39.3064 33.7344C35.5045 33.7344 31.6825 33.7344 27.8002 33.7344C27.8002 29.7515 27.8002 25.7685 27.8002 21.7253Z" fill="#251C1C"/>
<path d="M10.5809 48.2178C10.3797 47.4131 10.1987 46.6286 9.95731 45.8642C9.67569 44.9389 8.62967 44.5567 7.80492 45.0395C7.1411 45.4418 6.47728 45.8441 5.85369 46.2062C4.5864 44.9389 3.33922 43.6917 2.03169 42.3641C2.39378 41.7606 2.81621 41.0565 3.23864 40.3525C3.66107 39.6283 3.19841 38.4817 2.37366 38.2806C1.58915 38.0794 0.824747 37.8782 0 37.657C0 35.8868 0 34.1166 0 32.3062C0.663821 32.1452 1.30753 31.9642 1.97135 31.8033C3.35934 31.4613 3.76165 30.4957 3.01737 29.2486C2.6754 28.6652 2.33343 28.0819 2.01158 27.5588C3.29899 26.2714 4.52605 25.0444 5.83358 23.757C6.43705 24.119 7.10087 24.5012 7.76469 24.9036C8.62967 25.4266 9.73604 24.984 9.97743 24.0185C10.1786 23.2742 10.3596 22.5098 10.5608 21.7253C12.2304 21.7253 13.8799 21.7253 15.5897 21.7253C15.5897 23.415 15.5897 25.1047 15.5897 26.8146C11.6269 25.9697 8.36817 27.0358 6.13531 30.4555C4.24443 33.3321 4.22431 36.45 6.05485 39.3467C8.26759 42.8468 11.5666 43.9733 15.6098 43.1083C15.6098 44.8182 15.6098 46.4878 15.6098 48.1976C13.9604 48.2178 12.3109 48.2178 10.5809 48.2178Z" fill="#251C1C"/>
<path d="M15.6709 34.9612C15.6709 36.6107 15.6508 38.2803 15.6709 39.9298C15.6709 40.3522 15.5502 40.5534 15.1479 40.6942C12.7139 41.5189 9.9379 40.654 8.38898 38.5217C6.81995 36.3693 6.84006 33.5129 8.42921 31.3605C9.97813 29.2885 12.734 28.4236 15.1479 29.2483C15.5502 29.3891 15.691 29.5702 15.6709 29.9926C15.6508 31.6622 15.6709 33.3117 15.6709 34.9612Z" fill="#251C1C"/>
<path d="M10.841 69.9425C9.99616 69.9425 9.25188 69.9425 8.42713 69.9425C8.42713 69.6408 8.42713 69.3793 8.42713 69.0977C8.42713 66.3016 8.42713 63.5256 8.42713 60.7295C8.42713 60.3272 8.36679 60.0657 7.94436 59.8444C6.39544 59.0398 5.7115 57.4104 6.13393 55.781C6.55637 54.1919 7.98459 53.0855 9.61397 53.0654C11.2433 53.0654 12.6917 54.1516 13.1141 55.7408C13.5567 57.3702 12.8727 59.0197 11.3439 59.8243C10.9014 60.0657 10.8209 60.3272 10.8209 60.7496C10.841 63.5055 10.8209 66.2815 10.8209 69.0373C10.841 69.3391 10.841 69.6207 10.841 69.9425Z" fill="#251C1C"/>
<path d="M63.9666 4.82769C64.8316 4.82769 65.5759 4.82769 66.3805 4.82769C66.3805 5.12943 66.3805 5.41105 66.3805 5.67255C66.3805 8.46865 66.3805 11.2446 66.3805 14.0407C66.3805 14.443 66.461 14.7045 66.8633 14.9258C68.3921 15.7304 69.0961 17.3799 68.6737 18.9892C68.2513 20.5784 66.823 21.6847 65.1937 21.7048C63.5643 21.7048 62.116 20.5985 61.6935 19.0294C61.251 17.4001 61.9349 15.7707 63.4637 14.9459C63.866 14.7247 63.9867 14.5034 63.9666 14.081C63.9465 11.2849 63.9666 8.50888 63.9666 5.71278C63.9666 5.43116 63.9666 5.14954 63.9666 4.82769Z" fill="#251C1C"/>
<path d="M66.3638 0C66.3638 0.784516 66.3638 1.5288 66.3638 2.33343C65.5994 2.33343 64.835 2.33343 64.0303 2.33343C64.0303 1.56903 64.0303 0.804632 64.0303 0C64.7947 0 65.539 0 66.3638 0Z" fill="#251C1C"/>
<path d="M8.48944 72.4165C9.27396 72.4165 9.99813 72.4165 10.7826 72.4165C10.7826 73.1809 10.7826 73.9453 10.7826 74.77C10.0384 74.77 9.27396 74.77 8.48944 74.77C8.48944 73.9654 8.48944 73.201 8.48944 72.4165Z" fill="#251C1C"/>
<path d="M39.7907 4.84807C39.7907 5.6527 39.7907 6.39698 39.7907 7.1815C36.5923 7.1815 33.4341 7.1815 30.2357 7.1815C30.2357 6.43722 30.2357 5.67282 30.2357 4.84807C33.3738 4.84807 36.5521 4.84807 39.7907 4.84807Z" fill="#251C1C"/>
<path d="M42.3052 4.80753C43.0898 4.80753 43.8139 4.80753 44.6186 4.80753C44.6186 5.59205 44.6186 6.35645 44.6186 7.16108C43.8542 7.16108 43.1099 7.16108 42.3052 7.16108C42.3052 6.4168 42.3052 5.6524 42.3052 4.80753Z" fill="#251C1C"/>
<path d="M32.6068 69.9227C32.6068 69.118 32.6068 68.3737 32.6068 67.5892C35.8052 67.5892 38.9634 67.5892 42.1618 67.5892C42.1618 68.3335 42.1618 69.0979 42.1618 69.9227C39.0237 69.9227 35.8455 69.9227 32.6068 69.9227Z" fill="#251C1C"/>
<path d="M22.9514 69.9426C22.9514 69.138 22.9514 68.4138 22.9514 67.6092C23.7359 67.6092 24.5003 67.6092 25.2848 67.6092C25.2848 68.3736 25.2848 69.138 25.2848 69.9426C24.5204 69.9426 23.7762 69.9426 22.9514 69.9426Z" fill="#251C1C"/>
<path d="M51.8791 67.6094C51.8791 68.3939 51.8791 69.1181 51.8791 69.9227C51.1147 69.9227 50.3503 69.9227 49.5256 69.9227C49.5256 69.1985 49.5256 68.4341 49.5256 67.6094C50.29 67.6094 51.0544 67.6094 51.8791 67.6094Z" fill="#251C1C"/>
</svg>
