<svg width="60" height="60" viewBox="0 0 60 60" fill="none" xmlns="http://www.w3.org/2000/svg">
<path d="M51.4288 0H60V8.57113H51.4288V0Z" fill="#251C1C"/>
<path d="M51.4288 12.8572H60V21.4283H51.4288V12.8572Z" fill="#251C1C"/>
<path d="M38.568 0H47.1391V8.57113H38.568V0Z" fill="#251C1C"/>
<path d="M38.568 12.8572H47.1391V21.4283H38.568V12.8572Z" fill="#251C1C"/>
<path d="M55.7123 29.9993V42.856H4.28556V8.57148H29.999V4.28591H4.28556C3.14896 4.28591 2.05891 4.73742 1.25521 5.54112C0.451513 6.34482 0 7.43487 0 8.57148V42.856C0 43.9926 0.451513 45.0826 1.25521 45.8863C2.05891 46.69 3.14896 47.1416 4.28556 47.1416H21.4278V55.7127H12.8567V59.9983H47.1412V55.7127H38.5701V47.1416H55.7123C56.8489 47.1416 57.939 46.69 58.7427 45.8863C59.5464 45.0826 59.9979 43.9926 59.9979 42.856V29.9993H55.7123ZM34.2845 55.7127H25.7134V47.1416H34.2845V55.7127Z" fill="#251C1C"/>
</svg>
