<svg width="325" height="186" viewBox="0 0 325 186" fill="none" xmlns="http://www.w3.org/2000/svg">
<rect y="79" width="46" height="107" rx="10" fill="url(#paint0_linear_6_177)"/>
<rect x="47" y="79" width="45" height="107" rx="10" fill="url(#paint1_linear_6_177)"/>
<rect x="93" y="79" width="45" height="107" rx="10" fill="url(#paint2_linear_6_177)"/>
<rect x="139" y="79" width="45" height="107" rx="10" fill="url(#paint3_linear_6_177)"/>
<rect x="185" y="79" width="45" height="107" rx="10" fill="url(#paint4_linear_6_177)"/>
<rect x="231" y="79" width="45" height="107" rx="10" fill="#FFC629" fill-opacity="0.33"/>
<rect x="277" y="79" width="44" height="107" rx="10" fill="url(#paint5_linear_6_177)"/>
<path d="M13 168.037C19.1073 165.879 34.5318 164.112 47.3722 174.305C63.4226 187.047 73.9642 164.192 87.4192 145.848C95.2809 137.305 109.792 153.731 121.652 157.335C128.404 159.386 133.933 150.467 137.906 140.504L150.412 109.14C159.934 85.2591 179.456 83.5671 190.228 105.689C198.833 123.36 213.56 126.411 224.202 112.727L231.238 103.678C241.511 90.4691 255.279 89.929 265.867 102.32C276.351 114.59 289.967 114.19 300.22 101.311L314 84" stroke="#FFC629" stroke-linecap="round"/>
<path d="M260.348 14.8047V14.4531C260.348 11.4609 261.121 9.07422 262.668 7.29297C264.215 5.50391 266.391 4.60938 269.195 4.60938H269.418V6.29688H269.195C267.078 6.29688 265.406 6.95312 264.18 8.26562C262.953 9.57812 262.34 11.6172 262.34 14.3828V14.8984C262.34 16.9844 262.691 18.4609 263.395 19.3281C264.098 20.1953 264.992 20.6289 266.078 20.6289C267.141 20.6289 267.973 20.2852 268.574 19.5977C269.176 18.9023 269.477 17.8984 269.477 16.5859C269.477 15.3047 269.18 14.3242 268.586 13.6445C267.992 12.9648 267.156 12.625 266.078 12.625C265.07 12.625 264.188 12.9727 263.43 13.668C262.672 14.3555 262.293 15.3203 262.293 16.5625H261.484C261.484 14.875 261.945 13.5156 262.867 12.4844C263.789 11.4453 264.996 10.9258 266.488 10.9258C268.012 10.9258 269.227 11.4453 270.133 12.4844C271.047 13.5156 271.504 14.8828 271.504 16.5859C271.504 18.3047 270.992 19.6914 269.969 20.7461C268.945 21.8008 267.645 22.3281 266.066 22.3281C264.457 22.3281 263.102 21.7383 262 20.5586C260.898 19.3711 260.348 17.4531 260.348 14.8047ZM273.332 17.5C273.332 16.4531 273.617 15.5625 274.188 14.8281C274.758 14.0938 275.461 13.5703 276.297 13.2578V13.2109C275.633 12.8906 275.059 12.3945 274.574 11.7227C274.098 11.0508 273.859 10.2227 273.859 9.23828C273.859 7.83203 274.324 6.71094 275.254 5.875C276.184 5.03125 277.34 4.60938 278.723 4.60938C280.098 4.60938 281.246 5.03125 282.168 5.875C283.09 6.71875 283.551 7.83984 283.551 9.23828C283.551 10.2305 283.305 11.0625 282.812 11.7344C282.328 12.4062 281.758 12.8945 281.102 13.1992V13.2461C281.953 13.5664 282.66 14.0938 283.223 14.8281C283.793 15.5547 284.078 16.4453 284.078 17.5C284.078 19.0391 283.562 20.2305 282.531 21.0742C281.5 21.9102 280.23 22.3281 278.723 22.3281C277.207 22.3281 275.93 21.9102 274.891 21.0742C273.852 20.2305 273.332 19.0391 273.332 17.5ZM275.324 17.3711C275.324 18.3555 275.633 19.1445 276.25 19.7383C276.867 20.332 277.688 20.6289 278.711 20.6289C279.742 20.6289 280.559 20.332 281.16 19.7383C281.77 19.1445 282.074 18.3594 282.074 17.3828C282.074 16.3828 281.766 15.5898 281.148 15.0039C280.531 14.4102 279.719 14.1133 278.711 14.1133C277.711 14.1133 276.895 14.4102 276.262 15.0039C275.637 15.5898 275.324 16.3789 275.324 17.3711ZM275.828 9.33203C275.828 10.2305 276.098 10.9727 276.637 11.5586C277.176 12.1367 277.867 12.4258 278.711 12.4258C279.562 12.4258 280.254 12.1367 280.785 11.5586C281.324 10.9727 281.594 10.2305 281.594 9.33203C281.594 8.43359 281.336 7.70703 280.82 7.15234C280.305 6.58984 279.602 6.30859 278.711 6.30859C277.828 6.30859 277.125 6.58594 276.602 7.14062C276.086 7.6875 275.828 8.41797 275.828 9.33203ZM287.066 20.8867C287.066 20.5117 287.184 20.1914 287.418 19.9258C287.66 19.6602 288.008 19.5273 288.461 19.5273C288.906 19.5273 289.25 19.6602 289.492 19.9258C289.734 20.1914 289.855 20.5117 289.855 20.8867C289.855 21.2695 289.734 21.5938 289.492 21.8594C289.25 22.1172 288.906 22.2461 288.461 22.2461C288.008 22.2461 287.66 22.1133 287.418 21.8477C287.184 21.582 287.066 21.2617 287.066 20.8867ZM292.738 17.7109V17.5703H294.695V17.7109C294.695 18.6328 295 19.3516 295.609 19.8672C296.219 20.375 297.039 20.6289 298.07 20.6289C299.102 20.6289 299.941 20.2812 300.59 19.5859C301.238 18.8828 301.562 17.8711 301.562 16.5508C301.562 15.2305 301.238 14.25 300.59 13.6094C299.949 12.9609 299.129 12.6367 298.129 12.6367C297.418 12.6367 296.785 12.7695 296.23 13.0352C295.684 13.3008 295.195 13.6602 294.766 14.1133L293.324 13.4805L294.191 4.9375H302.711V6.73047H295.855L295.316 11.8984C295.691 11.6406 296.148 11.4141 296.688 11.2188C297.227 11.0234 297.82 10.9258 298.469 10.9258C299.875 10.9258 301.078 11.4102 302.078 12.3789C303.078 13.3398 303.578 14.7305 303.578 16.5508C303.578 18.3711 303.059 19.7891 302.02 20.8047C300.98 21.8203 299.664 22.3281 298.07 22.3281C296.391 22.3281 295.082 21.8984 294.145 21.0391C293.207 20.1797 292.738 19.0703 292.738 17.7109ZM305.406 10.1055V8.51172C305.406 7.28516 305.711 6.3125 306.32 5.59375C306.93 4.875 307.82 4.51562 308.992 4.51562C310.18 4.51562 311.078 4.87891 311.688 5.60547C312.297 6.33203 312.602 7.30078 312.602 8.51172V10.1055C312.602 11.3164 312.293 12.2812 311.676 13C311.066 13.7188 310.172 14.0781 308.992 14.0781C307.82 14.0781 306.93 13.7188 306.32 13C305.711 12.2812 305.406 11.3164 305.406 10.1055ZM307.176 10.1055C307.176 10.8164 307.312 11.3906 307.586 11.8281C307.859 12.2656 308.328 12.4844 308.992 12.4844C309.672 12.4844 310.148 12.2656 310.422 11.8281C310.695 11.3906 310.832 10.8164 310.832 10.1055V8.51172C310.832 7.80078 310.695 7.22656 310.422 6.78906C310.148 6.35156 309.672 6.13281 308.992 6.13281C308.328 6.13281 307.859 6.35156 307.586 6.78906C307.312 7.22656 307.176 7.80078 307.176 8.51172V10.1055ZM320.875 5.30078L310.141 22.5273L308.781 21.5781L319.504 4.375L320.875 5.30078ZM317.031 18.2617V16.668C317.031 15.4414 317.336 14.4688 317.945 13.75C318.555 13.0312 319.445 12.6719 320.617 12.6719C321.805 12.6719 322.703 13.0352 323.312 13.7617C323.922 14.4883 324.227 15.457 324.227 16.668V18.2617C324.227 19.4727 323.918 20.4375 323.301 21.1562C322.691 21.875 321.797 22.2344 320.617 22.2344C319.445 22.2344 318.555 21.875 317.945 21.1562C317.336 20.4375 317.031 19.4727 317.031 18.2617ZM318.801 18.2617C318.801 18.9727 318.938 19.5469 319.211 19.9844C319.484 20.4219 319.953 20.6406 320.617 20.6406C321.297 20.6406 321.773 20.4219 322.047 19.9844C322.32 19.5469 322.457 18.9727 322.457 18.2617V16.668C322.457 15.957 322.32 15.3828 322.047 14.9453C321.773 14.5078 321.297 14.2891 320.617 14.2891C319.953 14.2891 319.484 14.5078 319.211 14.9453C318.938 15.3828 318.801 15.957 318.801 16.668V18.2617Z" fill="#FFC629"/>
<path d="M258.996 43V34.4688H260.145V42.0508H264.275V43H258.996ZM265.078 40.7559V36.7656H266.191V40.7676C266.191 41.2715 266.305 41.6328 266.531 41.8516C266.762 42.0664 267.088 42.1738 267.51 42.1738C267.869 42.1738 268.186 42.0801 268.459 41.8926C268.732 41.7012 268.945 41.4531 269.098 41.1484V36.7656H270.217V43H269.203L269.156 42.1914H269.127C268.893 42.4805 268.609 42.707 268.277 42.8711C267.945 43.0352 267.578 43.1172 267.176 43.1172C266.535 43.1172 266.025 42.9355 265.646 42.5723C265.268 42.209 265.078 41.6035 265.078 40.7559ZM271.588 39.9766V39.7891C271.588 38.8477 271.848 38.0801 272.367 37.4863C272.887 36.8887 273.604 36.5898 274.518 36.5898C275.361 36.5898 276.002 36.8145 276.439 37.2637C276.877 37.709 277.096 38.207 277.096 38.7578V38.7871H276.018V38.7578C276.018 38.4297 275.898 38.1387 275.66 37.8848C275.422 37.6309 275.041 37.5039 274.518 37.5039C273.904 37.5039 273.451 37.7246 273.158 38.166C272.869 38.6074 272.725 39.1484 272.725 39.7891V39.9766C272.725 40.6172 272.869 41.1582 273.158 41.5996C273.451 42.041 273.904 42.2617 274.518 42.2617C275.041 42.2617 275.422 42.1348 275.66 41.8809C275.898 41.627 276.018 41.334 276.018 41.002V40.9727H277.096V41.002C277.096 41.5566 276.877 42.0586 276.439 42.5078C276.002 42.9531 275.361 43.1758 274.518 43.1758C273.604 43.1758 272.887 42.8789 272.367 42.2852C271.848 41.6875 271.588 40.918 271.588 39.9766ZM278.379 43V36.7656H279.387L279.434 37.5684H279.469C279.629 37.3066 279.84 37.0781 280.102 36.8828C280.367 36.6875 280.682 36.5898 281.045 36.5898C281.131 36.5898 281.221 36.5996 281.314 36.6191C281.412 36.6387 281.48 36.6562 281.52 36.6719V37.709C281.441 37.6934 281.357 37.6816 281.268 37.6738C281.182 37.666 281.086 37.6621 280.98 37.6621C280.617 37.6621 280.309 37.7559 280.055 37.9434C279.801 38.1309 279.613 38.3613 279.492 38.6348V43H278.379ZM282.076 39.9766V39.7891C282.076 38.8477 282.348 38.0801 282.891 37.4863C283.434 36.8887 284.158 36.5898 285.064 36.5898C285.971 36.5898 286.695 36.8887 287.238 37.4863C287.781 38.0801 288.053 38.8477 288.053 39.7891V39.9766C288.053 40.918 287.781 41.6875 287.238 42.2852C286.695 42.8789 285.971 43.1758 285.064 43.1758C284.158 43.1758 283.434 42.8789 282.891 42.2852C282.348 41.6875 282.076 40.918 282.076 39.9766ZM283.213 39.7891V39.9766C283.213 40.6133 283.367 41.1523 283.676 41.5938C283.988 42.0352 284.451 42.2559 285.064 42.2559C285.678 42.2559 286.139 42.0352 286.447 41.5938C286.756 41.1523 286.91 40.6133 286.91 39.9766V39.7891C286.91 39.1484 286.756 38.6074 286.447 38.166C286.139 37.7246 285.678 37.5039 285.064 37.5039C284.451 37.5039 283.988 37.7246 283.676 38.166C283.367 38.6074 283.213 39.1484 283.213 39.7891Z" fill="#161617"/>
<defs>
<linearGradient id="paint0_linear_6_177" x1="23" y1="79" x2="23" y2="186" gradientUnits="userSpaceOnUse">
<stop stop-color="#FFC629" stop-opacity="0"/>
<stop offset="1" stop-color="#FFC629" stop-opacity="0.33"/>
</linearGradient>
<linearGradient id="paint1_linear_6_177" x1="69.5" y1="79" x2="69.5" y2="186" gradientUnits="userSpaceOnUse">
<stop stop-color="#FFC629" stop-opacity="0"/>
<stop offset="1" stop-color="#FFC629" stop-opacity="0.33"/>
</linearGradient>
<linearGradient id="paint2_linear_6_177" x1="115.5" y1="79" x2="115.5" y2="186" gradientUnits="userSpaceOnUse">
<stop stop-color="#FFC629" stop-opacity="0"/>
<stop offset="1" stop-color="#FFC629" stop-opacity="0.33"/>
</linearGradient>
<linearGradient id="paint3_linear_6_177" x1="161.5" y1="79" x2="161.5" y2="186" gradientUnits="userSpaceOnUse">
<stop stop-color="#FFC629" stop-opacity="0"/>
<stop offset="1" stop-color="#FFC629" stop-opacity="0.33"/>
</linearGradient>
<linearGradient id="paint4_linear_6_177" x1="207.5" y1="79" x2="207.5" y2="186" gradientUnits="userSpaceOnUse">
<stop stop-color="#FFC629" stop-opacity="0"/>
<stop offset="1" stop-color="#FFC629" stop-opacity="0.33"/>
</linearGradient>
<linearGradient id="paint5_linear_6_177" x1="299" y1="79" x2="299" y2="186" gradientUnits="userSpaceOnUse">
<stop stop-color="#FFC629" stop-opacity="0"/>
<stop offset="1" stop-color="#FFC629" stop-opacity="0.33"/>
</linearGradient>
</defs>
</svg>
