<svg xmlns="http://www.w3.org/2000/svg" width="146" height="44" viewBox="0 0 146 44" fill="none">
  <path fill-rule="evenodd" clip-rule="evenodd" d="M40.4422 23.6156L32.5153 13.1882L17.0404 6.22893L12.1654 9.52255L40.4422 23.6156Z" fill="#FFC629"/>
  <path fill-rule="evenodd" clip-rule="evenodd" d="M38.9032 24.1119L13.5767 36.7631V11.4958L38.9032 24.1119Z" fill="#FFC629"/>
  <path fill-rule="evenodd" clip-rule="evenodd" d="M25.3743 38.3324L12.9803 38.3292L40.7622 24.4583L40.7661 29.3724L25.3743 38.3324Z" fill="#FFC629"/>
  <path fill-rule="evenodd" clip-rule="evenodd" d="M12.4311 38.3366L7.97766 35.8826L7.97766 16.9871L11.5533 10.4854L12.4311 10.919L12.4311 38.3366Z" fill="#FFC629"/>
  <path fill-rule="evenodd" clip-rule="evenodd" d="M6.83343 35.255V19.1909L0 31.4823L6.83343 35.255Z" fill="#FFC629"/>
  <path fill-rule="evenodd" clip-rule="evenodd" d="M17.9759 5.40343L31.0642 11.2848L23.5784 1.42786L17.9759 5.40343Z" fill="#FFC629"/>
  <path fill-rule="evenodd" clip-rule="evenodd" d="M40.7643 38.3218L27.6432 38.3279L40.7629 30.6978L40.7643 38.3218Z" fill="#FFC629"/>
  <path d="M47.1644 32.1943H50.3613C51.615 32.1943 52.7818 32.0315 53.8612 31.7058C54.9406 31.3802 55.888 30.8791 56.7029 30.2111C57.5178 29.5431 58.148 28.708 58.5939 27.706C59.0398 26.7039 59.2625 25.5516 59.2625 24.2406C59.2625 22.963 59.036 21.8315 58.5834 20.8503C58.1309 19.8692 57.4969 19.055 56.682 18.4079C55.8671 17.7607 54.9268 17.2722 53.8612 16.9466C52.7956 16.6167 51.6497 16.4539 50.424 16.4539H47.1644V32.1943ZM49.1285 18.2492H49.8181C50.8628 18.2492 51.8344 18.3536 52.7329 18.5623C53.6314 18.7711 54.422 19.1135 55.1045 19.5852C55.7869 20.0612 56.3234 20.6875 56.7133 21.4766C57.1032 22.2616 57.2984 23.2135 57.2984 24.3241C57.2984 25.4263 57.1032 26.3699 56.7133 27.1549C56.3234 27.9398 55.7869 28.5703 55.1045 29.0421C54.422 29.518 53.6347 29.8604 52.7433 30.0775C51.852 30.2904 50.8766 30.399 49.8181 30.399H49.1285V18.2492Z" fill="#FFC629"/>
  <path d="M66.0532 25.347C67.1815 25.2092 68.0937 24.7249 68.7904 23.8982C69.487 23.0715 69.8351 22.0862 69.8351 20.9422C69.8351 20.1781 69.6504 19.4558 69.2814 18.7711C68.9124 18.0906 68.4072 17.5603 67.7665 17.1845C67.2095 16.8672 66.6069 16.6626 65.9591 16.5791C65.3114 16.4956 64.5278 16.4539 63.6085 16.4539H61.2264V32.1943H63.1906V25.5349H64.0055L68.6441 32.1943H71.0261L66.0532 25.347ZM63.1906 18.2074H63.7129C64.27 18.2074 64.7923 18.245 65.28 18.3118C65.7677 18.3828 66.217 18.5164 66.6278 18.7085C67.0386 18.9047 67.3695 19.1928 67.6203 19.5769C67.871 19.9568 67.9964 20.4411 67.9964 21.0257C67.9964 21.6269 67.8814 22.1154 67.6516 22.4995C67.4217 22.8795 67.1083 23.1759 66.7113 23.3763C66.3143 23.5767 65.8789 23.7145 65.4054 23.7938C64.9319 23.869 64.4025 23.9066 63.8174 23.9066H63.1906V18.2074Z" fill="#FFC629"/>
  <path d="M82.0374 28.2491L83.8344 32.1946H85.9448L78.4226 15.7861L70.9005 32.1946H73.0109L74.8078 28.2491H82.0374ZM81.2225 26.4537H75.6227L78.4226 20.0865L81.2225 26.4537Z" fill="#FFC629"/>
  <path d="M95.369 24.2615V26.0568H99.4435C99.4297 26.6831 99.2692 27.2802 98.9629 27.8438C98.6566 28.4075 98.2558 28.9085 97.7614 29.3469C97.2671 29.7853 96.7167 30.1276 96.1108 30.3698C95.5048 30.612 94.8955 30.733 94.2825 30.733C93.4605 30.733 92.6736 30.5577 91.9213 30.2028C91.1691 29.8479 90.511 29.3636 89.9468 28.7498C89.3826 28.1402 88.9438 27.4472 88.6304 26.6748C88.317 25.9024 88.1603 25.1133 88.1603 24.3033C88.1603 23.4432 88.3203 22.6207 88.6409 21.8399C88.9614 21.0633 89.4069 20.3744 89.9781 19.7857C90.5494 19.1928 91.2214 18.7336 91.9945 18.4079C92.7676 18.0781 93.5858 17.9152 94.4496 17.9152C95.397 17.9152 96.3164 18.1491 97.2077 18.6167C98.0991 19.0843 98.8304 19.7064 99.4017 20.483L100.781 19.1678C100.015 18.2075 99.064 17.4601 97.9286 16.9257C96.7932 16.3913 95.6059 16.1199 94.366 16.1199C93.2515 16.1199 92.1963 16.3328 91.2005 16.7587C90.2046 17.1846 89.3304 17.7774 88.5782 18.5415C87.826 19.3097 87.2409 20.1907 86.823 21.1927C86.4051 22.1948 86.1962 23.2553 86.1962 24.3659C86.1962 25.4389 86.4018 26.4702 86.8126 27.4555C87.2234 28.445 87.7946 29.3218 88.5259 30.0859C89.2573 30.8541 90.1106 31.4512 91.0856 31.8812C92.0605 32.3154 93.0844 32.5284 94.1571 32.5284C95.2298 32.5284 96.2257 32.3405 97.145 31.9564C98.0644 31.5723 98.8584 31.0337 99.527 30.3364C100.196 29.6433 100.711 28.8292 101.073 27.8939C101.436 26.9629 101.617 25.9608 101.617 24.8878V24.2615H95.369Z" fill="#FFC629"/>
  <path d="M111.667 24.2615V26.0568H115.741C115.727 26.6831 115.567 27.2802 115.261 27.8438C114.954 28.4075 114.554 28.9085 114.059 29.3469C113.565 29.7853 113.014 30.1276 112.408 30.3698C111.803 30.612 111.193 30.733 110.58 30.733C109.758 30.733 108.971 30.5577 108.219 30.2028C107.467 29.8479 106.809 29.3636 106.245 28.7498C105.68 28.1402 105.242 27.4472 104.928 26.6748C104.615 25.9024 104.458 25.1133 104.458 24.3033C104.458 23.4432 104.618 22.6207 104.939 21.8399C105.259 21.0633 105.705 20.3744 106.276 19.7857C106.847 19.1928 107.519 18.7336 108.292 18.4079C109.065 18.0781 109.884 17.9152 110.747 17.9152C111.695 17.9152 112.614 18.1491 113.505 18.6167C114.397 19.0843 115.128 19.7064 115.699 20.483L117.078 19.1678C116.312 18.2075 115.362 17.4601 114.226 16.9257C113.091 16.3913 111.904 16.1199 110.664 16.1199C109.549 16.1199 108.494 16.3328 107.498 16.7587C106.502 17.1846 105.628 17.7774 104.876 18.5415C104.124 19.3097 103.539 20.1907 103.121 21.1927C102.703 22.1948 102.494 23.2553 102.494 24.3659C102.494 25.4389 102.7 26.4702 103.11 27.4555C103.521 28.445 104.092 29.3218 104.824 30.0859C105.555 30.8541 106.408 31.4512 107.383 31.8812C108.358 32.3154 109.382 32.5284 110.455 32.5284C111.528 32.5284 112.523 32.3405 113.443 31.9564C114.362 31.5723 115.156 31.0337 115.825 30.3364C116.493 29.6433 117.009 28.8292 117.371 27.8939C117.733 26.9629 117.914 25.9608 117.914 24.8878V24.2615H111.667Z" fill="#FFC629"/>
  <path d="M129.322 28.2491L131.119 32.1946H133.23L125.708 15.7861L118.186 32.1946H120.296L122.093 28.2491H129.322ZM128.508 26.4537H122.908L125.708 20.0865L128.508 26.4537Z" fill="#FFC629"/>
  <path d="M137.994 23.9483L133.042 32.1943H135.236L139.101 25.7437L142.82 32.1943H145.014L140.23 23.9483L144.764 16.4539H142.528L139.101 22.1947L135.883 16.4539H133.648L137.994 23.9483Z" fill="#FFC629"/>
</svg>