<svg width="70" height="70" viewBox="0 0 70 70" fill="none" xmlns="http://www.w3.org/2000/svg">
<path d="M40.0217 17.462V10.6291C44.6884 11.7426 48.6196 13.8937 51.8152 17.0824C55.0109 20.2711 57.1667 24.3456 58.2826 29.3059H51.4348C49.7101 23.3333 45.9058 19.3854 40.0217 17.462ZM29.8261 17.462V10.6291C19.5797 12.6537 13.3406 18.8792 11.1087 29.3059H17.9565C19.4783 23.5358 23.4348 19.5879 29.8261 17.462ZM17.9565 38.7202H11.1087C12.1232 44.4902 14.1268 48.8431 17.1196 51.7787C20.1123 54.7144 24.3478 56.739 29.8261 57.8525V51.0195C27.1884 50.2097 24.7536 48.6406 22.5217 46.3124C20.2899 43.9841 18.7681 41.4534 17.9565 38.7202ZM65.587 34.3167C65.587 42.9212 62.5688 50.235 56.5326 56.2581C50.4964 62.2813 43.2174 65.2928 34.6957 65.2928C26.0725 65.2928 18.7428 62.2813 12.7065 56.2581C6.67029 50.235 3.65217 42.9212 3.65217 34.3167C3.65217 25.7122 6.67029 18.3731 12.7065 12.2993C18.7428 6.2256 26.0725 3.18872 34.6957 3.18872C43.2174 3.18872 50.4964 6.2256 56.5326 12.2993C62.5688 18.3731 65.587 25.7122 65.587 34.3167ZM62.5435 34.3167C62.5435 26.6233 59.8297 20.0434 54.4022 14.577C48.9746 9.11063 42.4058 6.37744 34.6957 6.37744C26.9855 6.37744 20.3913 9.08532 14.913 14.5011C9.43478 19.9168 6.69565 26.5221 6.69565 34.3167C6.69565 42.0101 9.43478 48.59 14.913 54.0564C20.3913 59.5228 26.9855 62.256 34.6957 62.256C42.4058 62.256 48.9746 59.5228 54.4022 54.0564C59.8297 48.59 62.5435 42.0101 62.5435 34.3167ZM34.6957 48.4382C30.7391 48.4382 27.3913 47.0463 24.6522 44.2625C21.913 41.4787 20.5435 38.1634 20.5435 34.3167C20.5435 30.3688 21.913 27.0282 24.6522 24.295C27.3913 21.5618 30.7391 20.1446 34.6957 20.0434C38.5507 20.1446 41.8478 21.5618 44.587 24.295C47.3261 27.0282 48.7464 30.3688 48.8478 34.3167C48.7464 38.1634 47.3261 41.4787 44.587 44.2625C41.8478 47.0463 38.5507 48.4382 34.6957 48.4382ZM45.6522 34.3167C45.6522 31.2798 44.587 28.6732 42.4565 26.4967C40.3261 24.3203 37.7391 23.2321 34.6957 23.2321C31.6522 23.2321 29.0399 24.3203 26.8587 26.4967C24.6775 28.6732 23.587 31.2798 23.587 34.3167C23.587 37.3536 24.6775 39.9349 26.8587 42.0607C29.0399 44.1866 31.6522 45.2495 34.6957 45.2495C37.7391 45.2495 40.3261 44.1866 42.4565 42.0607C44.587 39.9349 45.6522 37.3536 45.6522 34.3167ZM40.0217 51.0195V57.8525C50.1667 55.5242 56.2536 49.1468 58.2826 38.7202H51.4348C50.4203 41.5546 48.9239 44.1106 46.9457 46.3883C44.9674 48.6659 42.6594 50.2097 40.0217 51.0195ZM66.6522 52.3861C65.6377 52.3861 64.8007 52.7151 64.1413 53.3731C63.4819 54.0311 63.1522 54.8662 63.1522 55.8785C63.1522 56.7896 63.4819 57.5741 64.1413 58.2321C64.8007 58.8901 65.6377 59.2191 66.6522 59.2191C67.5652 59.2191 68.3514 58.8901 69.0109 58.2321C69.6703 57.5741 70 56.7896 70 55.8785C70 54.8662 69.6703 54.0311 69.0109 53.3731C68.3514 52.7151 67.5652 52.3861 66.6522 52.3861ZM58.2826 61.1931C57.0652 61.1931 56.0254 61.6233 55.163 62.4837C54.3007 63.3442 53.8696 64.3818 53.8696 65.5965C53.8696 66.8113 54.3007 67.8489 55.163 68.7093C56.0254 69.5698 57.0652 70 58.2826 70C59.5 70 60.5399 69.5698 61.4022 68.7093C62.2645 67.8489 62.6956 66.8113 62.6956 65.5965C62.6956 64.3818 62.2645 63.3442 61.4022 62.4837C60.5399 61.6233 59.5 61.1931 58.2826 61.1931ZM65.587 41.1497C64.1667 41.1497 63.4565 41.8583 63.4565 43.2755C63.4565 44.5915 64.1667 45.2495 65.587 45.2495C66.9058 45.2495 67.5652 44.5915 67.5652 43.2755C67.5652 41.8583 66.9058 41.1497 65.587 41.1497ZM4.71739 64.5336C3.2971 64.5336 2.58696 65.2422 2.58696 66.6594C2.58696 68.1779 3.2971 68.9371 4.71739 68.9371C5.32609 68.9371 5.8587 68.7093 6.31522 68.2538C6.77174 67.7983 7 67.2668 7 66.6594C7 65.2422 6.23913 64.5336 4.71739 64.5336ZM4.1087 52.8416C2.68841 52.8416 1.97826 53.5503 1.97826 54.9675C1.97826 56.3847 2.68841 57.0933 4.1087 57.0933C4.61594 57.0933 5.09783 56.8908 5.55435 56.4859C6.01087 56.081 6.23913 55.5748 6.23913 54.9675C6.23913 54.3601 6.01087 53.8539 5.55435 53.449C5.09783 53.0441 4.61594 52.8416 4.1087 52.8416ZM10.9565 58.1562C10.1449 58.1562 9.46014 58.4599 8.90217 59.0672C8.3442 59.6746 8.06522 60.3326 8.06522 61.0412C8.06522 61.7498 8.3442 62.4078 8.90217 63.0152C9.46014 63.6226 10.1449 63.9262 10.9565 63.9262C11.7681 63.9262 12.4529 63.6226 13.0109 63.0152C13.5688 62.4078 13.8478 61.7498 13.8478 61.0412C13.8478 60.3326 13.5688 59.6746 13.0109 59.0672C12.4529 58.4599 11.7681 58.1562 10.9565 58.1562ZM66.6522 15.3362C65.6377 15.3362 65.1304 15.8424 65.1304 16.8547C65.1304 17.7657 65.6377 18.2213 66.6522 18.2213C67.6667 18.2213 68.1739 17.7657 68.1739 16.8547C68.1739 15.8424 67.6667 15.3362 66.6522 15.3362ZM2.43478 9.11063C0.811594 9.11063 0 9.97108 0 11.692C0 13.3116 0.811594 14.1215 2.43478 14.1215C4.05797 14.1215 4.86957 13.3116 4.86957 11.692C4.86957 9.97108 4.05797 9.11063 2.43478 9.11063ZM8.06522 0C7.25362 0 6.54348 0.303688 5.93478 0.911063C5.32609 1.51844 5.02174 2.27766 5.02174 3.18872C5.02174 3.99855 5.32609 4.70716 5.93478 5.31453C6.54348 5.92191 7.25362 6.2256 8.06522 6.2256C8.97826 6.2256 9.73913 5.92191 10.3478 5.31453C10.9565 4.70716 11.2609 3.99855 11.2609 3.18872C11.2609 2.27766 10.9565 1.51844 10.3478 0.911063C9.73913 0.303688 8.97826 0 8.06522 0ZM3.19565 19.2842C2.18116 19.2842 1.67391 19.8409 1.67391 20.9544C1.67391 21.9667 2.18116 22.4729 3.19565 22.4729C4.31159 22.4729 4.86957 21.9667 4.86957 20.9544C4.86957 19.8409 4.31159 19.2842 3.19565 19.2842Z" fill="#251C1C"/>
</svg>
