<svg width="123" height="59" viewBox="0 0 123 59" fill="none" xmlns="http://www.w3.org/2000/svg">
<path d="M122.5 29.5C122.5 45.5084 109.3 58.5 93 58.5C76.6996 58.5 63.5 45.5084 63.5 29.5C63.5 13.4916 76.6996 0.5 93 0.5C109.3 0.5 122.5 13.4916 122.5 29.5Z" fill="white" stroke="black"/>
<path d="M90 26.75C90 26.5511 89.921 26.3603 89.7803 26.2197C89.6397 26.079 89.4489 26 89.25 26C89.0511 26 88.8603 26.079 88.7197 26.2197C88.579 26.3603 88.5 26.5511 88.5 26.75V37.25C88.5 37.4489 88.579 37.6397 88.7197 37.7803C88.8603 37.921 89.0511 38 89.25 38C89.4489 38 89.6397 37.921 89.7803 37.7803C89.921 37.6397 90 37.4489 90 37.25V26.75ZM93 32C93.1989 32 93.3897 32.079 93.5303 32.2197C93.671 32.3603 93.75 32.5511 93.75 32.75V37.25C93.75 37.4489 93.671 37.6397 93.5303 37.7803C93.3897 37.921 93.1989 38 93 38C92.8011 38 92.6103 37.921 92.4697 37.7803C92.329 37.6397 92.25 37.4489 92.25 37.25V32.75C92.25 32.5511 92.329 32.3603 92.4697 32.2197C92.6103 32.079 92.8011 32 93 32ZM97.5 29.75C97.5 29.5511 97.421 29.3603 97.2803 29.2197C97.1397 29.079 96.9489 29 96.75 29C96.5511 29 96.3603 29.079 96.2197 29.2197C96.079 29.3603 96 29.5511 96 29.75V37.25C96 37.4489 96.079 37.6397 96.2197 37.7803C96.3603 37.921 96.5511 38 96.75 38C96.9489 38 97.1397 37.921 97.2803 37.7803C97.421 37.6397 97.5 37.4489 97.5 37.25V29.75ZM84 20C84 19.2044 84.3161 18.4413 84.8787 17.8787C85.4413 17.3161 86.2044 17 87 17H93.879C94.4755 17.0005 95.0474 17.2379 95.469 17.66L101.341 23.531C101.763 23.9528 102 24.5247 102 25.121V38C102 38.7956 101.684 39.5587 101.121 40.1213C100.559 40.6839 99.7956 41 99 41H87C86.2044 41 85.4413 40.6839 84.8787 40.1213C84.3161 39.5587 84 38.7956 84 38V20ZM87 18.5C86.6022 18.5 86.2206 18.658 85.9393 18.9393C85.658 19.2206 85.5 19.6022 85.5 20V38C85.5 38.3978 85.658 38.7794 85.9393 39.0607C86.2206 39.342 86.6022 39.5 87 39.5H99C99.3978 39.5 99.7794 39.342 100.061 39.0607C100.342 38.7794 100.5 38.3978 100.5 38V26H95.25C94.6533 26 94.081 25.7629 93.659 25.341C93.2371 24.919 93 24.3467 93 23.75V18.5H87ZM95.25 24.5H100.19L94.5 18.8105V23.75C94.5 23.9489 94.579 24.1397 94.7197 24.2803C94.8603 24.421 95.0511 24.5 95.25 24.5Z" fill="black"/>
<path d="M95.5 29.5C95.5 45.5084 82.3004 58.5 66 58.5C49.6996 58.5 36.5 45.5084 36.5 29.5C36.5 13.4916 49.6996 0.5 66 0.5C82.3004 0.5 95.5 13.4916 95.5 29.5Z" fill="white" stroke="black"/>
<path d="M64.0625 29.33L65.8563 31.1225C66.0371 31.32 66.2688 31.4188 66.5513 31.4188C66.8329 31.4188 67.0721 31.32 67.2688 31.1225L71.625 26.7912V29.0312C71.625 29.1929 71.6846 29.3325 71.8037 29.45C71.9229 29.5667 72.0717 29.625 72.25 29.625C72.4117 29.625 72.5562 29.5654 72.6838 29.4463C72.8113 29.3271 72.875 29.1783 72.875 29V25.635C72.875 25.36 72.775 25.1233 72.575 24.925C72.3758 24.725 72.1392 24.625 71.865 24.625H68.4688C68.3071 24.625 68.1679 24.6887 68.0512 24.8162C67.9346 24.9437 67.8758 25.0883 67.875 25.25C67.875 25.4283 67.9346 25.5771 68.0537 25.6963C68.1729 25.8154 68.3217 25.875 68.5 25.875H70.7087L66.5625 30.0775L64.77 28.2838C64.5725 28.0821 64.3329 27.9813 64.0513 27.9813C63.7688 27.9813 63.5371 28.0821 63.3563 28.2838L59.8075 31.8088C59.6858 31.9412 59.625 32.0925 59.625 32.2625C59.625 32.4325 59.6858 32.5758 59.8075 32.6925C59.9408 32.83 60.0925 32.8988 60.2625 32.8988C60.4325 32.8988 60.5758 32.83 60.6925 32.6925L64.0625 29.33ZM58.02 39C57.4442 39 56.9637 38.8075 56.5787 38.4225C56.1937 38.0375 56.0008 37.5567 56 36.98V21.02C56 20.4442 56.1929 19.9637 56.5787 19.5787C56.9646 19.1937 57.445 19.0008 58.02 19H73.9813C74.5562 19 75.0367 19.1929 75.4225 19.5787C75.8083 19.9646 76.0008 20.445 76 21.02V36.9813C76 37.5562 75.8075 38.0367 75.4225 38.4225C75.0375 38.8083 74.5567 39.0008 73.98 39H58.02ZM58.02 37.75H73.9813C74.1729 37.75 74.3492 37.67 74.51 37.51C74.6708 37.35 74.7508 37.1733 74.75 36.98V21.02C74.75 20.8275 74.67 20.6508 74.51 20.49C74.35 20.3292 74.1733 20.2492 73.98 20.25H58.02C57.8275 20.25 57.6508 20.33 57.49 20.49C57.3292 20.65 57.2492 20.8267 57.25 21.02V36.9813C57.25 37.1729 57.33 37.3492 57.49 37.51C57.65 37.6708 57.8262 37.7508 58.0187 37.75" fill="black"/>
<path d="M59.5 29.5C59.5 45.5084 46.3004 58.5 30 58.5C13.6996 58.5 0.5 45.5084 0.5 29.5C0.5 13.4916 13.6996 0.5 30 0.5C46.3004 0.5 59.5 13.4916 59.5 29.5Z" fill="white" stroke="black"/>
<path d="M30 32.75C30.5275 32.75 30.9717 32.5692 31.3325 32.2075C31.6942 31.8467 31.875 31.4025 31.875 30.875C31.875 30.3475 31.6942 29.9033 31.3325 29.5425C30.9708 29.1817 30.5267 29.0008 30 29C29.4733 28.9992 29.0292 29.18 28.6675 29.5425C28.3058 29.9033 28.125 30.3475 28.125 30.875C28.125 31.4025 28.3058 31.8467 28.6675 32.2075C29.0292 32.5683 29.4733 32.7492 30 32.75ZM20.77 39C20.1942 39 19.7138 38.8075 19.3288 38.4225C18.9438 38.0375 18.7508 37.5567 18.75 36.98V24.77C18.75 24.1942 18.9429 23.7138 19.3288 23.3288C19.7146 22.9438 20.1946 22.7508 20.7687 22.75H26.25V21.0188C26.25 20.4438 26.4429 19.9633 26.8288 19.5775C27.2146 19.1917 27.695 18.9992 28.27 19H31.7313C32.3063 19 32.7867 19.1925 33.1725 19.5775C33.5583 19.9625 33.7508 20.4429 33.75 21.0188V22.75H39.2313C39.8062 22.75 40.2863 22.9429 40.6713 23.3288C41.0563 23.7146 41.2492 24.195 41.25 24.77V36.9813C41.25 37.5563 41.0571 38.0367 40.6713 38.4225C40.2854 38.8083 39.8054 39.0008 39.2313 39H20.77ZM20.77 37.75H39.2313C39.4229 37.75 39.5992 37.67 39.76 37.51C39.9208 37.35 40.0008 37.1733 40 36.98V24.77C40 24.5775 39.92 24.4008 39.76 24.24C39.6 24.0792 39.4237 23.9992 39.2313 24H20.7687C20.5771 24 20.4008 24.08 20.24 24.24C20.0792 24.4 19.9992 24.5767 20 24.77V36.9813C20 37.1729 20.08 37.3492 20.24 37.51C20.4 37.6708 20.5762 37.7508 20.7687 37.75M27.5 22.75H32.5V21.0188C32.5 20.8271 32.42 20.6508 32.26 20.49C32.1 20.3292 31.9237 20.2492 31.7313 20.25H28.2687C28.0771 20.25 27.9008 20.33 27.74 20.49C27.5792 20.65 27.4992 20.8263 27.5 21.0188V22.75Z" fill="black"/>
</svg>
